# xmcd
#
# Track frame offsets:
#	150
#	11020
#	23977
#	37800
#	47950
#	59380
#	68137
#	77652
#	91165
#	101780
#	112632
#	126570
#	146605
#	163645
#
# Disc length: 2374 seconds
#
# Revision: 1
# Processed by: cddbd v1.4PL0 Copyright (c) Steve Scherf et al.
# Submitted via: audiograbber 1.80
#
DISCID=b509440e
DTITLE=Willie Nelson - Biography
DYEAR=1900
DGENRE=
TTITLE0=Hello Walls
TTITLE1=Crazy
TTITLE2=Funny How Time Slips Away
TTITLE3=Touch Me
TTITLE4=You Took My Happy Away
TTITLE5=Why Are You Picking On Me
TTITLE6=Columbus Stockade Blues
TTITLE7=Good Hearted Woman
TTITLE8=Blue Eyes Crying In The Rain
TTITLE9=Ain't Life Hell
TTITLE10=My Heroes Have Always Been Cowboys
TTITLE11=Angel Flying Too Close To The Ground
TTITLE12=Healing Hands Of Time
TTITLE13=The Devil's Right Hand
EXTD=
EXTT0=
EXTT1=
EXTT2=
EXTT3=
EXTT4=
EXTT5=
EXTT6=
EXTT7=
EXTT8=
EXTT9=
EXTT10=
EXTT11=
EXTT12=
EXTT13=
PLAYORDER=
